<?xml version="1.0" encoding="UTF-8" standalone="no"?><!DOCTYPE svg PUBLIC "-//W3C//DTD SVG 1.1//EN" "http://www.w3.org/Graphics/SVG/1.1/DTD/svg11.dtd"><svg width="100%" height="100%" viewBox="0 0 834 394" version="1.1" xmlns="http://www.w3.org/2000/svg" xmlns:xlink="http://www.w3.org/1999/xlink" xml:space="preserve" xmlns:serif="http://www.serif.com/" style="fill-rule:evenodd;clip-rule:evenodd;stroke-linejoin:round;stroke-miterlimit:2;"><path d="M416.951,0.078l-0.278,-0.008c-0.177,0 -0.348,0.008 -0.513,0.025l0,-0.025c-42.444,0 -67.075,10.93 -101.199,50.887c-21.148,24.762 -46.303,61.38 -83.017,114.715l-0.045,0.065c-0.044,0.066 -11.877,17.826 -11.877,17.826c-84.242,122.191 -204.488,125.163 -209.578,125.204l-10.444,0.083l0.214,84.413l10.474,0c6.85,0 169.176,-1.494 279.877,-162.153l11.903,-17.288c43.697,-63.479 66.868,-96.311 82.731,-113.234c12.931,-13.795 19.764,-14.865 31.36,-14.88c11.594,0.015 18.425,1.084 31.359,14.88c15.865,16.925 39.043,49.762 82.754,113.255l11.883,17.24c110.85,160.87 273.351,160.782 280.37,160.667l10.408,-0.172l-0.65,-84.394l-10.42,0c-5.082,0 -125.112,-1.934 -209.195,-123.941c-0,0 -11.863,-17.517 -11.863,-17.517c-36.739,-53.374 -61.896,-89.996 -83.046,-114.761c-34.126,-39.963 -58.759,-50.895 -101.208,-50.895l0,0.008Z" style="fill:#eeeeee;fill-rule:nonzero;"/></svg>