<svg xmlns="http://www.w3.org/2000/svg" xml:space="preserve" fill-rule="evenodd" stroke-linejoin="round" stroke-miterlimit="2" clip-rule="evenodd" viewBox="0 0 834 394">
  <path fill="#000000" fill-rule="nonzero" d="m416.951.078-.278-.008c-.177 0-.348.008-.513.025V.07C373.716.07 349.085 11 314.961 50.957c-21.148 24.762-46.303 61.38-83.017 114.715l-.045.065-11.877 17.826C135.78 305.754 15.534 308.726 10.444 308.767L0 308.85l.214 84.413h10.474c6.85 0 169.176-1.494 279.877-162.153l11.903-17.288c43.697-63.479 66.868-96.311 82.731-113.234 12.931-13.795 19.764-14.865 31.36-14.88 11.594.015 18.425 1.084 31.359 14.88 15.865 16.925 39.043 49.762 82.754 113.255l11.883 17.24c110.85 160.87 273.351 160.782 280.37 160.667l10.408-.172-.65-84.394h-10.42c-5.082 0-125.112-1.934-209.195-123.941l-11.863-17.517c-36.739-53.374-61.896-89.996-83.046-114.761C484.033 11.002 459.4.07 416.951.07v.008Z"/>
</svg>
